<svg width="181" height="170" viewBox="0 0 181 170" fill="none" xmlns="http://www.w3.org/2000/svg">
<path fill-rule="evenodd" clip-rule="evenodd" d="M56.9745 136.954C57.235 138.187 58.4686 138.98 59.7394 138.729L66.0046 137.479C67.2695 137.228 68.0871 136.024 67.8266 134.791L64.8533 120.647C64.5957 119.414 63.3568 118.62 62.093 118.874L55.8261 120.118C54.5582 120.374 53.743 121.578 53.9989 122.81L56.9745 136.954Z" fill="#01243D"/>
<path fill-rule="evenodd" clip-rule="evenodd" d="M63.6614 125.253V124.031C64.3144 124.091 64.9562 124.167 65.6062 124.235L67.8258 134.743C68.0906 135.991 67.2595 137.209 65.9737 137.464L64.2554 137.805L59.6079 138.728C58.3156 138.983 57.0621 138.18 56.7973 136.932L56.5625 135.823C60.7416 134.023 63.6614 129.971 63.6614 125.253Z" fill="#001022"/>
<path fill-rule="evenodd" clip-rule="evenodd" d="M27.8462 98.8776C27.8462 98.8776 39.809 160.148 49.0979 166.386C49.0979 166.386 58.2729 173.38 72.226 167.908C72.226 167.908 56.9656 111.117 57.432 99.1529L27.8462 98.8776Z" fill="#69E7FF"/>
<path fill-rule="evenodd" clip-rule="evenodd" d="M64.6895 168.265C62.4066 159.882 49.9792 113.715 48.7307 98.0103L57.168 98.0869C56.6933 109.97 72.2259 166.378 72.2259 166.378C69.5262 167.41 67.0056 167.994 64.6895 168.265Z" fill="#0AA3C0"/>
<path fill-rule="evenodd" clip-rule="evenodd" d="M66.1346 94.5408V103.502C66.1346 109.091 61.4105 113.622 55.5853 113.622H33.1743C27.3485 113.622 22.625 109.091 22.625 103.502V94.5408H66.1346Z" fill="#01243D"/>
<path fill-rule="evenodd" clip-rule="evenodd" d="M31.1296 105.648H57.63C60.9215 105.648 63.907 104.389 66.1346 102.347V103.276C66.1346 108.989 61.4105 113.622 55.5853 113.622H33.1743C27.3485 113.622 22.625 108.989 22.625 103.276V102.348C24.855 104.39 27.8375 105.648 31.1296 105.648Z" fill="#001224"/>
<path fill-rule="evenodd" clip-rule="evenodd" d="M27.8462 46.8368V101.48C12.3422 100.801 0 88.8287 0 74.1594C0 59.4871 12.3422 47.5158 27.8462 46.8368Z" fill="#01243D"/>
<path fill-rule="evenodd" clip-rule="evenodd" d="M27.8462 101.48H52.2116V46.8368H27.8462V101.48Z" fill="#014E78"/>
<path fill-rule="evenodd" clip-rule="evenodd" d="M163.596 0C160.245 8.35533 157.764 38.3877 157.764 74.1704C157.764 109.92 160.242 139.932 163.589 148.316C151.576 134.509 110.821 101.709 52.2115 101.709V46.6186C110.837 46.6186 151.596 13.8036 163.596 0Z" fill="#00C1E6"/>
<path fill-rule="evenodd" clip-rule="evenodd" d="M155.764 74.1611C155.764 115.117 159.27 148.316 163.596 148.316C167.92 148.316 171.428 115.117 171.428 74.1611C171.428 33.2008 167.92 0 163.596 0C162.658 0 155.764 33.2008 155.764 74.1611Z" fill="#00181D"/>
<path fill-rule="evenodd" clip-rule="evenodd" d="M0.870239 69.3878L0.875489 69.3474C0.999157 68.6885 1.15491 68.0417 1.32874 67.3996C1.36666 67.2523 1.40225 67.1039 1.44483 66.9572C1.61866 66.3509 1.81817 65.7549 2.03459 65.1653C2.09467 64.995 2.15825 64.8252 2.22359 64.6571C2.44584 64.0866 2.68793 63.5264 2.94693 62.9755C3.03035 62.8005 3.1161 62.629 3.20185 62.4564C3.47135 61.9164 3.75369 61.3823 4.05819 60.8637C4.15444 60.6997 4.26003 60.5403 4.35803 60.3792C4.67828 59.8595 5.00553 59.3438 5.36137 58.8471C5.44946 58.7207 5.54804 58.6017 5.64137 58.4776C6.83022 56.8652 8.19874 55.3852 9.71892 54.0541C9.86767 53.9236 10.0065 53.7838 10.157 53.6562C10.5175 53.3548 10.8978 53.0782 11.2741 52.7923C11.5664 52.5706 11.8534 52.3413 12.1584 52.1305C12.5061 51.8851 12.8713 51.6593 13.2318 51.4295C13.5847 51.2054 13.9376 50.9808 14.3028 50.7717C14.6534 50.569 15.011 50.3808 15.3686 50.1925C15.7699 49.9835 16.1753 49.7808 16.5854 49.5902C16.936 49.4268 17.2918 49.2714 17.6494 49.1219C18.0933 48.9365 18.5443 48.7638 18.9999 48.5998C19.3481 48.4745 19.6981 48.3492 20.0539 48.236C20.5445 48.0795 21.0491 47.9421 21.5555 47.8093C21.888 47.7226 22.2211 47.6291 22.5611 47.5517C23.1357 47.4229 23.7202 47.3224 24.3077 47.2272C24.5929 47.1804 24.8747 47.1203 25.1617 47.0816C26.0466 46.9633 26.9385 46.8766 27.8462 46.8368V61.6797H20.6612V61.7259C13.0755 62.0637 6.18563 64.9031 0.870239 69.3878Z" fill="#005888"/>
<path fill-rule="evenodd" clip-rule="evenodd" d="M52.2116 61.5239C50.7692 61.56 49.3165 61.5817 47.8539 61.5817H27.8462V46.8368H52.2116V61.5239Z" fill="#2578B1"/>
<path fill-rule="evenodd" clip-rule="evenodd" d="M52.2115 46.636H52.2197C53.8789 46.636 55.5182 46.6023 57.1471 46.5499C57.6476 46.5342 58.1458 46.5109 58.6457 46.4905C59.8043 46.4416 60.9589 46.384 62.1025 46.3106C62.6251 46.2769 63.1482 46.2437 63.6691 46.2065C64.9337 46.1127 66.1855 46.0033 67.4326 45.8805C67.7614 45.849 68.0937 45.824 68.4231 45.7885C69.9746 45.6267 71.5127 45.4404 73.0345 45.2343C73.439 45.1808 73.8359 45.1179 74.2386 45.0597C75.3769 44.8967 76.5059 44.7244 77.6279 44.5399C78.1278 44.4572 78.6254 44.3711 79.1229 44.2832C80.2019 44.094 81.2727 43.8932 82.3365 43.683C82.759 43.5992 83.1832 43.5206 83.6063 43.4345C85.049 43.1358 86.48 42.8244 87.8924 42.492C88.1293 42.4356 88.3603 42.3739 88.5972 42.3168C89.7809 42.0327 90.9576 41.7359 92.1186 41.4279C92.5865 41.304 93.0491 41.1747 93.5118 41.049C94.4674 40.7865 95.4125 40.5169 96.35 40.2399C96.8074 40.1048 97.2654 39.9715 97.7199 39.833C98.832 39.4942 99.9302 39.1455 101.019 38.7869C101.251 38.7113 101.484 38.6396 101.716 38.564C102.995 38.1361 104.257 37.6926 105.504 37.2408C105.942 37.0814 106.371 36.9189 106.806 36.7577C107.644 36.4451 108.479 36.1296 109.303 35.8077C109.781 35.6191 110.259 35.4322 110.731 35.2413C111.545 34.9142 112.347 34.5824 113.145 34.2465C113.56 34.0719 113.982 33.8996 114.394 33.722C115.516 33.2383 116.624 32.7464 117.718 32.247C118.153 32.0467 118.578 31.843 119.01 31.641C119.712 31.3127 120.409 30.9844 121.095 30.6502C121.605 30.4034 122.105 30.1543 122.608 29.9051C123.206 29.6065 123.8 29.3056 124.388 29.0029C124.894 28.7427 125.401 28.4842 125.896 28.2217C126.512 27.8986 127.113 27.5709 127.717 27.2443C128.569 26.7816 129.406 26.3159 130.233 25.8484C130.714 25.576 131.199 25.3042 131.672 25.03C132.232 24.704 132.783 24.3775 133.333 24.0491C133.72 23.8175 134.108 23.5858 134.493 23.3535C135.061 23.0072 135.626 22.6626 136.182 22.3151C136.484 22.127 136.778 21.9384 137.075 21.7498C139.116 20.4576 141.059 19.1629 142.908 17.873C143.058 17.7676 143.211 17.6611 143.362 17.5558C143.983 17.1198 144.594 16.6838 145.193 16.2501C145.293 16.1773 145.391 16.104 145.489 16.0324C153.879 9.9156 160.021 4.11316 163.596 0C162.173 3.55318 160.906 11.0309 159.921 21.1916C159.285 21.7236 158.638 22.2568 157.967 22.7982C137.474 39.3277 100.524 60.3697 52.2115 61.5816V46.636Z" fill="#98EEFF"/>
<path fill-rule="evenodd" clip-rule="evenodd" d="M180.589 76.1531L180.552 76.1245C180.547 75.958 180.545 75.7975 180.54 75.6327C180.56 75.8062 180.574 75.9796 180.589 76.1531Z" fill="#014E78"/>
<path fill-rule="evenodd" clip-rule="evenodd" d="M157.505 55.5103C170.112 56.1573 180.13 66.1838 180.13 78.4947C180.13 90.8055 170.112 100.832 157.505 101.48V55.5103Z" fill="#8FD1E9"/>
<path fill-rule="evenodd" clip-rule="evenodd" d="M24.5438 101.131C23.8951 101.029 23.2546 100.91 22.6176 100.768C22.3777 100.714 22.1395 100.657 21.9008 100.598C21.2544 100.436 20.6163 100.252 19.9898 100.048C19.808 99.9898 19.6203 99.938 19.4402 99.8751C17.8342 99.3202 16.2963 98.633 14.8364 97.8269C14.6363 97.7181 14.4428 97.5987 14.248 97.4845C13.7319 97.1833 13.2245 96.8685 12.73 96.5384C12.5025 96.3872 12.2796 96.2336 12.0561 96.0765C11.5874 95.7441 11.134 95.3952 10.6882 95.0369C10.4906 94.878 10.2876 94.725 10.0923 94.5615C9.49402 94.0531 8.91157 93.5253 8.35903 92.9717C8.20536 92.8193 8.0681 92.6551 7.91795 92.4986C7.52085 92.0826 7.1302 91.6578 6.75715 91.2183C6.53485 90.9553 6.32486 90.6817 6.11136 90.4105C5.83275 90.0568 5.5641 89.6985 5.30367 89.3326C5.09075 89.0307 4.87959 88.7271 4.67723 88.4165C4.43909 88.0499 4.21386 87.6722 3.99331 87.2944C3.80855 86.9808 3.61733 86.6719 3.4484 86.3518C3.12169 85.7399 2.81786 85.1145 2.53866 84.4773C2.38674 84.1307 2.25476 83.773 2.1181 83.42C1.98612 83.0805 1.85943 82.7421 1.74036 82.3979C5.98936 84.3625 10.6982 85.5581 15.6722 85.7829H27.8461V101.48C26.954 101.44 26.0765 101.352 25.2084 101.237C24.9849 101.208 24.7673 101.166 24.5438 101.131Z" fill="#001224"/>
<path fill-rule="evenodd" clip-rule="evenodd" d="M46.2463 85.8673V85.8972C48.2527 85.8972 50.2388 85.9369 52.2116 85.9984V101.48H27.8462V85.8673H46.2463Z" fill="#012B47"/>
<path fill-rule="evenodd" clip-rule="evenodd" d="M159.477 121.902C160.513 134.712 161.949 144.158 163.596 148.316C157.398 141.144 143.531 128.887 123.526 118.696C123.421 118.642 123.318 118.589 123.212 118.537C122.353 118.1 121.482 117.669 120.6 117.241C120.474 117.179 120.348 117.121 120.222 117.06C117.64 115.818 114.965 114.617 112.196 113.465C111.842 113.318 111.488 113.169 111.131 113.023C110.371 112.714 109.604 112.41 108.83 112.107C108.38 111.933 107.927 111.76 107.472 111.588C106.72 111.302 105.968 111.017 105.204 110.74C104.699 110.557 104.183 110.381 103.671 110.201C102.429 109.766 101.171 109.343 99.8963 108.931C99.2555 108.724 98.6164 108.516 97.9681 108.316C97.2941 108.109 96.6126 107.908 95.931 107.707C95.2472 107.506 94.561 107.31 93.8719 107.117C93.2078 106.932 92.5466 106.747 91.875 106.571C91.0532 106.353 90.2238 106.145 89.3886 105.938C88.7903 105.79 88.1944 105.637 87.5908 105.494C86.3191 105.196 85.034 104.912 83.7385 104.644C83.1605 104.522 82.5721 104.411 81.9866 104.296C81.0962 104.122 80.201 103.952 79.2983 103.792C78.6878 103.683 78.0714 103.576 77.4557 103.474C76.4849 103.314 75.5071 103.164 74.5235 103.02C73.9933 102.943 73.4677 102.861 72.9323 102.787C71.461 102.588 69.9751 102.408 68.4741 102.25C68.0568 102.206 67.629 102.171 67.2094 102.131C66.0553 102.019 64.8936 101.916 63.722 101.828C63.1592 101.786 62.5929 101.75 62.0242 101.714C60.9237 101.644 59.8144 101.587 58.6981 101.541C58.1702 101.518 57.6446 101.493 57.1138 101.476C55.515 101.426 53.9029 101.392 52.2738 101.391L52.2115 101.39V85.8673C98.6217 87.2987 135.578 105.122 159.477 121.902Z" fill="#69E7FF"/>
<path fill-rule="evenodd" clip-rule="evenodd" d="M163.596 0C160.196 8.35533 157.68 38.3877 157.68 74.1704C157.68 109.92 160.194 139.932 163.589 148.316C160.814 145.172 156.508 141.037 150.838 136.534C146.105 116.445 143.687 95.9877 143.585 75.5221C143.478 54.1494 145.898 32.7679 150.844 11.7891C156.517 7.28233 160.821 3.14511 163.596 0Z" fill="#00839C"/>
<path fill-rule="evenodd" clip-rule="evenodd" d="M150.795 11.6794C156.489 7.21458 160.811 3.11584 163.596 0C162.147 3.5188 160.856 10.9242 159.853 20.9866C159.206 21.5134 158.547 22.0415 157.864 22.5776C154.656 25.0945 151.044 27.7163 147.062 30.3571C148.092 24.1041 149.317 17.873 150.795 11.6794Z" fill="#0AA3C0"/>
<path fill-rule="evenodd" clip-rule="evenodd" d="M163.596 148.316C160.91 145.144 156.742 140.975 151.252 136.432C149.544 128.875 148.148 121.266 147.062 113.622C151.556 116.344 155.724 119.112 159.552 121.852C160.566 134.686 161.979 144.15 163.596 148.316Z" fill="#004B5A"/>
<path fill-rule="evenodd" clip-rule="evenodd" d="M170.992 88.4694C174.597 88.4694 177.519 83.6145 177.519 77.6273C177.519 71.6389 174.597 66.7858 170.992 66.7858C167.388 66.7858 164.466 71.6389 164.466 77.6273C164.466 83.6145 167.388 88.4694 170.992 88.4694Z" fill="#B9E1ED"/>
</svg>
