<svg width="466" height="327" viewBox="0 0 466 327" fill="none" xmlns="http://www.w3.org/2000/svg">
<path fill-rule="evenodd" clip-rule="evenodd" d="M402.217 109.5C402.217 109.5 395.505 124.083 390.989 130.244C386.472 136.404 382.169 142.295 378.567 159.393C374.963 176.49 375.58 178.208 374.594 182.624C373.607 187.041 367.19 204.933 367.152 208.214C367.114 211.494 354.179 230.172 350.865 238.915C347.553 247.656 341.682 260.143 342.013 266.5L343.488 266.126C343.488 266.126 344.689 251.303 354.914 236.322C365.141 221.341 363.677 218.513 375.291 210.815C386.902 203.12 394.402 181.861 394.402 181.861C394.402 181.861 406.215 158.768 405.666 146.764C405.117 134.76 408.251 123.934 402.217 109.5Z" fill="#00C1E6"/>
<path fill-rule="evenodd" clip-rule="evenodd" d="M386 87.5C386 87.5 385.613 97.0241 382.546 102.682C379.48 108.34 376.838 111.776 376.281 117.897C375.725 124.019 373.799 139.8 365.247 147.505C356.694 155.209 355.603 178.294 349.092 185.277C342.583 192.261 341.733 197.281 342.935 209.258C344.136 221.235 348.22 237.834 338.778 259.5L336.643 254.111C336.643 254.111 343.398 236.287 341.763 225.849C340.128 215.414 334.437 199.642 336.52 192.079C338.603 184.516 330.857 183.039 335.522 171.599C340.185 160.16 338.27 156.185 344.62 146.294C344.62 146.294 345.271 145.831 346.94 137.463C348.609 129.095 362.067 113.757 368.269 108.523C374.47 103.288 383.407 94.9002 386 87.5Z" fill="#00C1E6"/>
<path fill-rule="evenodd" clip-rule="evenodd" d="M360.925 134.5C360.925 134.5 353.358 147.303 353.25 155.543C353.143 163.783 354.046 170.486 350.218 181.769C346.39 193.054 353.988 200.187 351.797 206.417C349.608 212.648 349.439 220.024 349.504 225.617C349.571 231.211 340.837 249.723 339.507 259.095C338.179 268.469 339.878 268.5 339.878 268.5C339.878 268.5 341.326 256.125 343.336 252.034C345.345 247.942 351.455 233.833 352.883 228.374C354.31 222.916 358.18 219.413 361.517 210.17C364.855 200.925 369.601 193.14 369.239 180.022C368.876 166.906 374.217 153.061 360.925 134.5Z" fill="#11B0CE"/>
<path fill-rule="evenodd" clip-rule="evenodd" d="M345.124 258.442C345.124 258.442 348.573 242.424 363.115 240.824C377.659 239.226 386.203 242.092 396.476 230.39C406.751 218.686 412.718 200.117 416 196.92C416 196.92 410.838 194.272 402.257 202.269C393.674 210.266 387.645 216.334 382.676 220.989C377.709 225.646 373.674 222.611 368.429 225.68C364.032 228.252 358.347 235.688 355.843 239.582C355.03 240.847 354.066 242.009 352.957 243.026C351.95 243.954 350.75 245.09 349.981 245.926C348.441 247.598 344 258.5 344 258.5L345.124 258.442Z" fill="#11B0CE"/>
<path fill-rule="evenodd" clip-rule="evenodd" d="M340.104 256.5C340.104 256.5 345.265 236.75 341.808 227.084C338.352 217.42 327.535 210.268 327.969 204.196C328.403 198.125 335.349 181.716 329.687 169.5C329.687 169.5 327.535 180.397 325.413 182.82C323.289 185.246 308.723 195.02 311.306 207.932C313.887 220.842 328.049 223.859 331.537 227.661C335.024 231.46 339.734 231.456 339.763 233.984C339.793 236.511 340.712 245.7 339.148 254.767L340.104 256.5Z" fill="#009BB9"/>
<path fill-rule="evenodd" clip-rule="evenodd" d="M346.336 243.652L353.636 222.699C353.636 222.699 357.924 205.845 360.409 191.791C362.895 177.738 361.725 134.5 361.725 134.5C361.725 134.5 354.226 147.291 354.12 155.524C354.014 163.757 354.909 170.455 351.116 181.728C347.322 193.002 354.851 200.13 352.68 206.354C350.511 212.579 350.343 219.949 350.408 225.537C350.475 231.127 341.82 249.622 340.503 258.986C339.782 264.117 339.961 266.443 340.27 267.5C339.1 259.309 346.336 243.652 346.336 243.652Z" fill="#00C1E6"/>
<path fill-rule="evenodd" clip-rule="evenodd" d="M381.069 229.999C374.646 231.285 368.903 230.847 361.277 236.542C353.652 242.238 349.168 248.321 349.168 248.321C349.168 248.321 345.74 254.467 344.323 257.709C344.119 258.204 344 258.5 344 258.5L345.124 258.441C345.124 258.441 348.573 242.315 363.115 240.704C377.659 239.094 386.203 241.98 396.476 230.198C406.751 218.415 412.718 199.719 416 196.5C416 196.5 405.073 205.031 398.32 212.582C391.568 220.131 387.494 228.71 381.069 229.999Z" fill="#00C1E6"/>
<path fill-rule="evenodd" clip-rule="evenodd" d="M325.467 181.972C323.335 184.424 308.714 194.31 311.307 207.368C313.898 220.424 328.113 223.476 331.614 227.321C335.114 231.163 339.842 231.16 339.871 233.715C339.901 236.271 340.823 245.564 339.253 254.735L339.673 255.5C340.439 251.921 341.503 246.47 341.851 242.332C342.417 235.612 341.335 232.829 339.187 227.386C337.039 221.94 323.696 210.851 320.352 205.021C317.009 199.19 326.8 189.445 328.973 184.74C331.145 180.035 329.757 168.5 329.757 168.5C329.757 168.5 327.597 179.521 325.467 181.972Z" fill="#009BB9"/>
<path fill-rule="evenodd" clip-rule="evenodd" d="M359.705 246.944L361.964 241.426C363.717 237.368 368.201 235.431 371.981 237.099C381.508 241.3 385.648 252.996 381.231 263.224L378.002 270.7C376.588 273.975 377.079 277.579 378.988 280.119C380.72 282.427 381.002 285.635 379.801 288.417L378.099 292.358C376.256 296.625 372.669 299.786 368.416 301.09C365.928 301.852 363.731 303.739 362.569 306.429L360.159 312.01C357.494 318.179 350.675 321.125 344.927 318.591L341.648 317.144C335.9 314.608 333.402 307.551 336.067 301.381C340.378 294.003 340.033 288.497 338.505 284.762C336.261 279.271 336.287 272.953 338.717 267.329L339.057 266.54C341.62 260.604 346.572 256.172 352.467 254.275C355.07 253.438 357.783 251.391 359.705 246.944Z" fill="#52CFE7"/>
<path fill-rule="evenodd" clip-rule="evenodd" d="M319 324.5C323.642 318.434 349.1 285.943 365.699 280.527C384.022 274.551 366.752 298.29 366.752 298.29C366.752 298.29 399.256 262.477 411.185 265.706C422.119 268.665 411.185 290.863 411.185 290.863C411.185 290.863 423.5 278.57 438.434 278.57C452.967 278.57 428.279 322.166 426.946 324.5H319Z" fill="#99E1EF"/>
<path fill-rule="evenodd" clip-rule="evenodd" d="M417.287 254.722C404.069 275.622 394.421 298.837 388.906 323.5L388 323.254C393.492 299.107 403.075 275.932 416.27 255.056C419.337 250.206 422.649 244.45 428.392 242.557C428.502 242.521 428.545 242.692 428.439 242.731C423.194 244.732 420.157 250.187 417.287 254.722Z" fill="#3C8F7C"/>
<path fill-rule="evenodd" clip-rule="evenodd" d="M418.97 241.464C419.301 241.966 420.565 243.276 420.937 244.997C421.436 246.629 421.042 248.674 420.999 248.603C420.904 248.644 422.463 247.281 422.95 245.114C423.58 243.034 423.139 240.151 422.354 239.197C421.001 237.037 418.635 236.818 418.175 237.865C417.687 238.905 418.306 240.32 418.97 241.464Z" fill="#3C8F7C"/>
<path fill-rule="evenodd" clip-rule="evenodd" d="M422.06 260.448C421.568 260.111 420.289 258.83 418.586 258.428C416.973 257.902 414.933 258.255 415.002 258.298C414.961 258.392 416.346 256.869 418.511 256.427C420.59 255.84 423.449 256.333 424.382 257.131C426.501 258.517 426.671 260.871 425.621 261.307C424.577 261.771 423.183 261.131 422.06 260.448Z" fill="#3C8F7C"/>
<path fill-rule="evenodd" clip-rule="evenodd" d="M416.808 268.77C416.316 268.433 415.039 267.151 413.336 266.751C411.723 266.224 409.681 266.576 409.752 266.619C409.709 266.713 411.096 265.19 413.26 264.749C415.34 264.162 418.199 264.655 419.132 265.452C421.251 266.838 421.421 269.192 420.371 269.628C419.327 270.094 417.931 269.452 416.808 268.77Z" fill="#3C8F7C"/>
<path fill-rule="evenodd" clip-rule="evenodd" d="M411.917 250.729C412.323 251.186 413.782 252.312 414.416 254.009C415.164 255.592 415.086 257.747 415.032 257.681C414.943 257.74 416.285 256.084 416.438 253.788C416.745 251.556 415.863 248.686 414.937 247.842C413.257 245.863 410.869 246.04 410.572 247.186C410.247 248.332 411.08 249.673 411.917 250.729Z" fill="#3C8F7C"/>
<path fill-rule="evenodd" clip-rule="evenodd" d="M404.594 260.543C405.213 260.862 407.378 261.441 408.465 263.014C409.696 264.413 409.852 266.806 409.771 266.758C409.655 266.861 411.312 264.449 411.24 261.867C411.394 259.289 409.817 256.541 408.428 256.033C405.857 254.618 402.566 255.88 402.296 257.269C401.985 258.667 403.306 259.762 404.594 260.543Z" fill="#3C8F7C"/>
<path fill-rule="evenodd" clip-rule="evenodd" d="M397.369 274.359C397.984 274.571 400.045 274.787 401.287 276.155C402.632 277.328 403.157 279.652 403.075 279.618C402.986 279.737 404.109 277.101 403.631 274.579C403.358 272.022 401.484 269.581 400.138 269.307C397.57 268.339 394.776 270.111 394.752 271.518C394.692 272.941 396.069 273.803 397.369 274.359Z" fill="#3C8F7C"/>
<path fill-rule="evenodd" clip-rule="evenodd" d="M430.437 244.76C430.153 244.509 429.437 243.586 428.421 243.234C427.465 242.802 426.211 242.942 426.251 242.975C426.222 243.035 427.132 242.079 428.468 241.887C429.759 241.591 431.471 242.06 432 242.641C433.223 243.673 433.216 245.263 432.558 245.506C431.904 245.768 431.086 245.271 430.437 244.76Z" fill="#3C8F7C"/>
<path fill-rule="evenodd" clip-rule="evenodd" d="M428.23 238.788C428.243 239.172 428.487 240.311 428.129 241.359C427.866 242.405 427.002 243.358 427.002 243.307C426.939 243.295 428.197 243.11 429.15 242.122C430.152 241.234 430.846 239.54 430.739 238.757C430.721 237.134 429.546 236.192 428.967 236.592C428.376 236.976 428.246 237.946 428.23 238.788Z" fill="#3C8F7C"/>
<path fill-rule="evenodd" clip-rule="evenodd" d="M392 324.197C406.855 303.895 424.912 285.13 446.385 268.812C446.601 268.649 446.89 269.025 446.674 269.192C426.309 284.925 408.291 303.504 393.129 324.5L392 324.197Z" fill="#3C8F7C"/>
<path fill-rule="evenodd" clip-rule="evenodd" d="M434.31 287.341C433.817 287.004 432.54 285.728 430.835 285.329C429.221 284.805 427.181 285.156 427.252 285.198C427.209 285.292 428.594 283.776 430.76 283.337C432.84 282.753 435.698 283.243 436.631 284.037C438.751 285.416 438.921 287.76 437.871 288.194C436.826 288.657 435.432 288.019 434.31 287.341Z" fill="#3C8F7C"/>
<path fill-rule="evenodd" clip-rule="evenodd" d="M443.31 279.056C442.818 278.72 441.539 277.445 439.836 277.044C438.223 276.52 436.183 276.872 436.252 276.915C436.209 277.009 437.596 275.493 439.761 275.052C441.84 274.469 444.699 274.96 445.632 275.752C447.751 277.131 447.921 279.475 446.871 279.911C445.827 280.372 444.433 279.735 443.31 279.056Z" fill="#3C8F7C"/>
<path fill-rule="evenodd" clip-rule="evenodd" d="M419.905 283.997C420.366 284.279 422.003 284.842 422.754 286.123C423.626 287.275 423.613 289.146 423.553 289.103C423.458 289.177 424.871 287.389 424.96 285.379C425.222 283.382 424.159 281.161 423.114 280.691C421.207 279.456 418.598 280.263 418.312 281.328C417.994 282.399 418.952 283.322 419.905 283.997Z" fill="#3C8F7C"/>
<path fill-rule="evenodd" clip-rule="evenodd" d="M449.437 271.72C449.153 271.473 448.437 270.554 447.421 270.204C446.465 269.774 445.211 269.914 445.251 269.945C445.22 270.006 446.132 269.055 447.468 268.861C448.759 268.569 450.471 269.035 451 269.612C452.223 270.641 452.216 272.223 451.558 272.465C450.904 272.726 450.086 272.231 449.437 271.72Z" fill="#3C8F7C"/>
<path fill-rule="evenodd" clip-rule="evenodd" d="M446.019 265.803C446.057 266.173 446.351 267.256 446.108 268.299C445.949 269.332 445.255 270.327 445.252 270.276C445.196 270.27 446.29 269.987 447.06 268.953C447.877 268.008 448.371 266.314 448.224 265.566C448.097 263.995 446.998 263.182 446.517 263.616C446.024 264.039 445.978 264.988 446.019 265.803Z" fill="#3C8F7C"/>
<path fill-rule="evenodd" clip-rule="evenodd" d="M443.183 305.036C429.641 306.483 417.028 312.309 404.885 317.989C396.698 321.821 397.111 322.912 395.444 323.482C395.173 323.574 394.903 323.288 395.034 323.035C395.675 321.797 397.359 320.959 398.528 320.246C399.891 319.417 401.315 318.683 402.758 318C405.85 316.538 409.019 315.223 412.169 313.889C418.578 311.175 425.092 308.622 431.862 306.894C435.574 305.947 439.351 305.264 443.174 304.929C443.245 304.922 443.254 305.028 443.183 305.036Z" fill="#3C8F7C"/>
<path fill-rule="evenodd" clip-rule="evenodd" d="M430.797 301.054C430.89 301.614 431.508 303.234 431.127 304.835C430.901 306.414 429.678 307.974 429.671 307.897C429.565 307.892 431.576 307.384 432.936 305.758C434.39 304.266 435.194 301.658 434.871 300.533C434.53 298.16 432.439 297.006 431.574 297.7C430.687 298.376 430.664 299.819 430.797 301.054Z" fill="#3C8F7C"/>
<path fill-rule="evenodd" clip-rule="evenodd" d="M418.738 305.513C418.833 306.071 419.449 307.691 419.068 309.294C418.843 310.873 417.622 312.433 417.613 312.354C417.508 312.349 419.517 311.841 420.876 310.217C422.332 308.725 423.136 306.115 422.813 304.99C422.47 302.617 420.38 301.463 419.515 302.157C418.63 302.833 418.606 304.278 418.738 305.513Z" fill="#3C8F7C"/>
<path fill-rule="evenodd" clip-rule="evenodd" d="M406.681 310.712C406.774 311.271 407.39 312.891 407.011 314.494C406.785 316.073 405.562 317.633 405.555 317.554C405.449 317.551 407.46 317.041 408.82 315.417C410.274 313.925 411.078 311.315 410.755 310.19C410.414 307.818 408.321 306.663 407.458 307.357C406.571 308.033 406.548 309.478 406.681 310.712Z" fill="#3C8F7C"/>
<path fill-rule="evenodd" clip-rule="evenodd" d="M434.295 311.823C434.047 311.371 433.569 309.884 432.405 308.925C431.361 307.901 429.631 307.407 429.669 307.466C429.599 307.524 431.289 306.855 433.15 307.326C435.004 307.652 437.03 309.119 437.436 310.098C438.528 311.986 437.713 313.896 436.721 313.842C435.723 313.812 434.894 312.781 434.295 311.823Z" fill="#3C8F7C"/>
<path fill-rule="evenodd" clip-rule="evenodd" d="M422.237 316.28C421.991 315.828 421.511 314.342 420.347 313.382C419.303 312.358 417.573 311.864 417.611 311.923C417.541 311.981 419.231 311.312 421.094 311.783C422.947 312.109 424.972 313.576 425.378 314.555C426.47 316.443 425.655 318.353 424.663 318.299C423.665 318.269 422.838 317.238 422.237 316.28Z" fill="#3C8F7C"/>
<path fill-rule="evenodd" clip-rule="evenodd" d="M444.57 307.655C444.348 307.399 443.83 306.511 442.943 306.051C442.127 305.533 440.94 305.444 440.972 305.477C440.935 305.524 441.934 304.875 443.202 304.932C444.446 304.898 445.96 305.57 446.36 306.142C447.33 307.206 447.071 308.534 446.421 308.628C445.771 308.74 445.092 308.19 444.57 307.655Z" fill="#3C8F7C"/>
<path fill-rule="evenodd" clip-rule="evenodd" d="M442.634 302.182C442.588 302.495 442.626 303.463 442.18 304.261C441.813 305.071 440.965 305.713 440.973 305.669C440.922 305.651 441.984 305.698 442.91 305.044C443.861 304.476 444.677 303.205 444.703 302.551C444.922 301.224 444.091 300.272 443.558 300.507C443.016 300.728 442.769 301.499 442.634 302.182Z" fill="#3C8F7C"/>
<path fill-rule="evenodd" clip-rule="evenodd" d="M93.0001 221.82C76.9762 207.509 68.7369 186.958 64.6468 172.236C60.2065 156.255 59.5597 143.501 59.5536 143.374L58.6826 143.32C58.6887 143.448 59.3384 156.296 63.8056 172.385C67.9337 187.251 76.2597 208.013 92.4822 222.5L93.0001 221.82Z" fill="#3C8F7C"/>
<path fill-rule="evenodd" clip-rule="evenodd" d="M61.3463 139.097C62.1091 142.714 61.4706 146.131 59.8444 148.598C57.2945 146.685 55.2892 143.619 54.5265 140.001C53.7639 136.384 54.4024 132.967 56.0286 130.5C58.5785 132.414 60.5838 135.48 61.3463 139.097Z" fill="#3C8F7C"/>
<path fill-rule="evenodd" clip-rule="evenodd" d="M56.3637 149.992C59.0476 152.55 60.6165 155.91 60.9205 159.145C57.9742 159.283 54.7326 158.058 52.0487 155.5C49.3648 152.942 47.796 149.582 47.4919 146.346C50.4382 146.209 53.6798 147.434 56.3637 149.992Z" fill="#3C8F7C"/>
<path fill-rule="evenodd" clip-rule="evenodd" d="M55.2524 161.233C58.6817 162.281 61.4942 164.608 63.1587 167.434C60.6699 168.991 57.3357 169.438 53.9064 168.391C50.4769 167.342 47.6645 165.016 46 162.189C48.4889 160.632 51.8229 160.184 55.2524 161.233Z" fill="#3C8F7C"/>
<path fill-rule="evenodd" clip-rule="evenodd" d="M60.0977 173.867C62.7815 174.746 64.9274 176.991 66.1429 179.827C64.1082 181.601 61.4437 182.273 58.7597 181.395C56.076 180.516 53.9301 178.271 52.7144 175.435C54.7491 173.662 57.4138 172.99 60.0977 173.867Z" fill="#3C8F7C"/>
<path fill-rule="evenodd" clip-rule="evenodd" d="M64.5893 155.115C66.6708 153.026 69.4279 152.135 72.0966 152.421C72.2445 155.237 71.2705 158.091 69.1888 160.18C67.1072 162.269 64.3502 163.16 61.6813 162.874C61.5336 160.058 62.5076 157.204 64.5893 155.115Z" fill="#3C8F7C"/>
<path fill-rule="evenodd" clip-rule="evenodd" d="M67.5733 164.918C69.655 162.829 72.412 161.938 75.0807 162.224C75.2286 165.04 74.2546 167.894 72.1729 169.982C70.0914 172.073 67.3343 172.963 64.6655 172.678C64.5177 169.861 65.4917 167.007 67.5733 164.918Z" fill="#3C8F7C"/>
<path fill-rule="evenodd" clip-rule="evenodd" d="M82.9999 240.91C68.2256 238.773 55.582 230.082 47.577 223.167C38.8865 215.663 33.6323 208.571 33.5802 208.5L33.054 208.8C33.1066 208.871 38.3984 216.017 47.1452 223.573C55.228 230.556 68.0025 239.334 82.96 241.5L82.9999 240.91Z" fill="#50BFA5"/>
<path fill-rule="evenodd" clip-rule="evenodd" d="M33.3627 205.409C35.1776 207.207 36.0976 209.437 36.0809 211.5C33.866 211.386 31.5332 210.39 29.7184 208.593C27.9037 206.793 26.9835 204.565 27.0002 202.5C29.2152 202.616 31.5479 203.61 33.3627 205.409Z" fill="#50BFA5"/>
<path fill-rule="evenodd" clip-rule="evenodd" d="M34.4165 213.146C36.9878 213.583 39.2038 214.935 40.6217 216.718C38.9256 217.972 36.5333 218.541 33.962 218.104C31.3908 217.667 29.1745 216.313 27.7568 214.53C29.4529 213.278 31.8454 212.709 34.4165 213.146Z" fill="#50BFA5"/>
<path fill-rule="evenodd" clip-rule="evenodd" d="M38.0838 220.851C40.5039 220.195 43.0695 220.488 45.1621 221.484C44.3238 223.274 42.5521 224.743 40.1322 225.399C37.7122 226.055 35.1465 225.762 33.054 224.766C33.8922 222.976 35.6639 221.507 38.0838 220.851Z" fill="#50BFA5"/>
<path fill-rule="evenodd" clip-rule="evenodd" d="M46.0075 225.982C47.9738 225.438 50.1415 225.878 51.9731 227.013C51.4235 228.809 50.0671 230.225 48.101 230.768C46.1347 231.312 43.967 230.872 42.1353 229.737C42.685 227.941 44.0412 226.526 46.0075 225.982Z" fill="#50BFA5"/>
<path fill-rule="evenodd" clip-rule="evenodd" d="M41.5246 213.132C41.964 211.032 43.3279 209.391 45.1265 208.5C46.3928 210.148 46.9691 212.27 46.5297 214.368C46.0903 216.466 44.7262 218.109 42.9276 219C41.6613 217.352 41.085 215.23 41.5246 213.132Z" fill="#50BFA5"/>
<path fill-rule="evenodd" clip-rule="evenodd" d="M46.8218 217.633C47.2614 215.533 48.6254 213.893 50.424 213C51.6903 214.65 52.2664 216.771 51.827 218.869C51.3876 220.967 50.0235 222.609 48.225 223.5C46.9587 221.85 46.3824 219.731 46.8218 217.633Z" fill="#50BFA5"/>
<path fill-rule="evenodd" clip-rule="evenodd" d="M91.6856 285.168C74.7184 291.571 56.0413 288.189 43.3608 284.224C29.5949 279.92 19.7244 274.02 19.6261 273.962L19.25 274.675C19.3487 274.735 29.2913 280.681 43.1483 285.016C55.9531 289.021 74.8227 292.435 92 285.952L91.6856 285.168Z" fill="#96D9C9"/>
<path fill-rule="evenodd" clip-rule="evenodd" d="M16.9103 270.306C20.0582 271.512 22.4779 273.864 23.75 276.606C21.2098 277.886 17.9876 278.078 14.8397 276.873C11.6918 275.667 9.2721 273.315 8 270.573C10.54 269.293 13.7624 269.101 16.9103 270.306Z" fill="#96D9C9"/>
<path fill-rule="evenodd" clip-rule="evenodd" d="M23.268 280.496C26.2659 279.499 29.4302 279.817 32 281.132C30.9392 283.653 28.7301 285.761 25.732 286.761C22.7341 287.758 19.5698 287.438 17 286.125C18.061 283.604 20.2701 281.496 23.268 280.496Z" fill="#96D9C9"/>
<path fill-rule="evenodd" clip-rule="evenodd" d="M31.0431 286.397C33.1263 284.019 35.9457 282.833 38.7118 282.886C38.9547 285.819 38.0402 288.894 35.9569 291.27C33.8735 293.648 31.0543 294.834 28.2882 294.78C28.0453 291.849 28.9599 288.773 31.0431 286.397Z" fill="#96D9C9"/>
<path fill-rule="evenodd" clip-rule="evenodd" d="M42.2932 290.113C44.3764 287.737 47.1958 286.551 49.9617 286.604C50.2048 289.535 49.2902 292.61 47.207 294.988C45.1236 297.364 42.3043 298.55 39.5382 298.498C39.2953 295.566 40.2098 292.491 42.2932 290.113Z" fill="#96D9C9"/>
<path fill-rule="evenodd" clip-rule="evenodd" d="M31.6246 278.829C29.6876 276.452 28.8244 273.586 29.0295 270.987C31.5806 271.268 34.1887 272.665 36.1255 275.042C38.0623 277.42 38.9258 280.286 38.7204 282.885C36.1696 282.604 33.5615 281.207 31.6246 278.829Z" fill="#96D9C9"/>
<path fill-rule="evenodd" clip-rule="evenodd" d="M42.9471 282.61C41.0056 280.233 40.11 277.344 40.2677 274.705C42.7769 274.947 45.361 276.319 47.3027 278.696C49.2444 281.073 50.14 283.964 49.9823 286.603C47.4729 286.361 44.8888 284.989 42.9471 282.61Z" fill="#96D9C9"/>
<path fill-rule="evenodd" clip-rule="evenodd" d="M56.3517 290.74C56.8933 289.403 57.9692 288.473 59.2298 288.09C59.8345 289.326 59.9399 290.794 59.3983 292.132C58.8567 293.469 57.7808 294.399 56.5201 294.782C55.9153 293.546 55.8103 292.077 56.3517 290.74Z" fill="#96D9C9"/>
<path fill-rule="evenodd" clip-rule="evenodd" d="M128.036 323.22C128.036 323.22 149.733 237.075 142.538 228.42C132.595 216.457 124.393 256.141 123.588 252.77C115.988 220.939 113.963 180.21 89.4449 175.901C75.5074 173.449 92.6644 206.186 91.6321 215.041C90.5999 223.895 65.4829 194.498 50.2202 179.097C34.9573 163.696 27.0748 173.447 36.7184 192.812C46.0438 211.539 76.2115 232.003 69.993 234.431C63.7746 236.86 26.0224 212.675 21.3994 223.014C15.731 235.689 72.3611 252.938 67.0284 255.787C61.6958 258.634 34.63 249.255 35.3695 258.948C36.1088 268.642 72.4928 268.28 71.871 272.544C70.8642 279.447 46.7999 263.821 45.7422 273.373C44.6604 283.143 77.401 281.361 76.8339 288.982C76.508 293.362 69.4827 286.755 68.4475 292.821C66.0873 306.651 109.248 323.5 109.248 323.5L128.036 323.22Z" fill="#00C1E6"/>
<path fill-rule="evenodd" clip-rule="evenodd" d="M145 324.083C145 324.083 124.312 292.815 114.357 286.911C103.749 280.621 111.825 299.454 111.825 299.454C111.825 299.454 90.1484 274.027 84.1225 279.192C78.0968 284.359 83.5661 290.342 83.5661 290.342C83.5661 290.342 64.1056 284.658 60.6078 291.699C55.2332 302.52 87.2722 311.492 87.2722 311.492C87.2722 311.492 73.5184 311.348 76.0489 318.653C79.865 329.671 145 324.083 145 324.083Z" fill="#00C1E6"/>
<path fill-rule="evenodd" clip-rule="evenodd" d="M61 291.373C64.4815 284.171 83.8516 289.986 83.8516 289.986C83.8516 289.986 78.4077 283.866 84.4054 278.58C90.4034 273.296 107.663 289.115 107.663 289.115C107.663 289.115 105.854 276.069 118.851 287.561C128.134 295.77 145 324.5 145 324.5L61 291.373Z" fill="#A0D7E1"/>
<path fill-rule="evenodd" clip-rule="evenodd" d="M120.084 244.5L121 243.865C104.384 218.304 99.3123 187.955 97.983 166.997C96.5409 144.253 99.0725 127.349 99.0983 127.181L97.9634 126.846C97.9373 127.015 95.3866 144.033 96.8342 166.912C98.1716 188.049 103.291 218.666 120.084 244.5Z" fill="#96D9C9"/>
<path fill-rule="evenodd" clip-rule="evenodd" d="M102.355 123.238C102.391 128.364 100.688 132.601 97.9693 135.142C95.2085 131.478 93.4426 126.529 93.4073 121.404C93.3723 116.279 95.075 112.042 97.7933 109.5C100.554 113.165 102.32 118.113 102.355 123.238Z" fill="#96D9C9"/>
<path fill-rule="evenodd" clip-rule="evenodd" d="M92.8054 134.76C95.5992 139.282 96.746 144.36 96.2944 148.718C92.4592 147.599 88.5988 144.572 85.805 140.05C83.0112 135.528 81.8644 130.45 82.316 126.092C86.1512 127.211 90.0116 130.238 92.8054 134.76Z" fill="#96D9C9"/>
<path fill-rule="evenodd" clip-rule="evenodd" d="M88.8679 148.782C92.8922 151.632 95.8009 155.916 97.1356 160.375C93.5966 161.38 89.2923 160.555 85.2679 157.704C81.2436 154.854 78.3347 150.569 77 146.111C80.5393 145.106 84.8434 145.931 88.8679 148.782Z" fill="#96D9C9"/>
<path fill-rule="evenodd" clip-rule="evenodd" d="M94.0361 173.132C95.8247 174.218 97.1835 175.96 97.8813 177.831C96.4128 178.388 94.566 178.184 92.7774 177.097C90.9887 176.011 89.6297 174.269 88.9321 172.398C90.4006 171.841 92.2474 172.045 94.0361 173.132Z" fill="#96D9C9"/>
<path fill-rule="evenodd" clip-rule="evenodd" d="M95.5278 181.427C97.3162 182.515 98.6752 184.256 99.373 186.129C97.9043 186.684 96.0577 186.48 94.2691 185.394C92.4804 184.308 91.1214 182.566 90.4238 180.693C91.8923 180.137 93.7391 180.342 95.5278 181.427Z" fill="#96D9C9"/>
<path fill-rule="evenodd" clip-rule="evenodd" d="M103.027 145.683C106.306 143.741 110.141 143.762 113.542 145.368C112.972 149.326 110.93 152.827 107.651 154.769C104.371 156.711 100.537 156.691 97.1355 155.085C97.7056 151.127 99.7482 147.625 103.027 145.683Z" fill="#96D9C9"/>
<path fill-rule="evenodd" clip-rule="evenodd" d="M103.027 159.259C106.306 157.317 110.141 157.337 113.542 158.943C112.972 162.901 110.93 166.403 107.651 168.345C104.371 170.286 100.537 170.266 97.1355 168.66C97.7056 164.702 99.7482 161.201 103.027 159.259Z" fill="#96D9C9"/>
<path fill-rule="evenodd" clip-rule="evenodd" d="M103.122 178.308C105.209 177.095 107.649 177.108 109.813 178.112C109.451 180.585 108.151 182.773 106.064 183.988C103.978 185.201 101.537 185.188 99.3728 184.185C99.7355 181.711 101.035 179.523 103.122 178.308Z" fill="#96D9C9"/>
<path fill-rule="evenodd" clip-rule="evenodd" d="M339.711 254.249C341.668 254.562 341.553 254.876 341.804 254.91C342.102 254.948 345.635 253.204 345.635 253.204C345.635 253.204 356.088 248.13 356.641 247.835L364.185 238.5L370 241.138C370 241.138 361.515 251.062 360.978 251.499C360.442 251.936 345.456 257.105 344.153 257.604C344.153 257.604 342.838 258.785 341.989 259.499C341.138 260.211 340.001 260.495 339.731 260.657C339.69 260.681 338.752 261.168 337.426 261.452C336.285 261.696 337.237 260.933 337.237 260.933C337.237 260.933 339.258 260.094 339.157 259.943C339.08 259.825 338.007 260.35 336.747 260.634C336.423 260.706 336.102 260.778 335.808 260.84C335.034 261.004 334.696 260.569 335.471 260.265C335.746 260.16 336.206 259.992 336.554 259.922C336.928 259.844 337.244 259.65 337.547 259.538C338.149 259.312 338.591 259.155 338.568 259.136C338.536 259.109 338.622 258.977 338.274 259.044C337.858 259.125 337.016 259.494 336.393 259.562C336.04 259.603 335.307 259.73 335.307 259.73C335.307 259.73 334.009 259.851 334 259.673C333.982 259.282 334.78 259.065 335.271 259.074C335.579 258.919 336.355 258.808 336.355 258.808C336.355 258.808 337.858 258.223 337.77 258.004C337.736 257.918 336.826 258.052 335.86 258.117C334.839 258.186 334.099 258.186 334.043 257.99C333.957 257.682 334.771 257.565 334.771 257.565C334.771 257.565 335.488 257.463 335.722 257.41C335.996 257.349 336.805 257.098 336.805 257.098C336.805 257.098 339.571 256.099 339.471 255.9C339.371 255.699 338.914 255.278 338.718 255.28C338.523 255.28 338.175 255.472 337.98 255.474C337.785 255.474 337.366 255.437 337.337 255.195C337.306 254.954 338.391 254.455 338.391 254.455C338.391 254.455 339.145 254.159 339.711 254.249Z" fill="#F2BE93"/>
<path fill-rule="evenodd" clip-rule="evenodd" d="M359 243.23C359 243.23 360.948 244.94 361.758 245.503C362.43 245.971 365.71 247.5 365.71 247.5C365.71 247.5 368.972 242.668 370.399 240.244C372.13 237.303 373.329 232.931 372.919 232.813C371.77 232.48 370.191 232.277 368.733 232.924C363.685 235.165 359 243.23 359 243.23Z" fill="#355389"/>
<path fill-rule="evenodd" clip-rule="evenodd" d="M342 256.26C341.19 256.387 340.362 256.234 340.003 255.5C339.924 256.371 341.255 256.803 342 256.26Z" fill="#FE875E"/>
<path fill-rule="evenodd" clip-rule="evenodd" d="M107.981 222.244C108.098 219.432 107.684 216.653 106.429 214.035C105.349 211.781 102.677 210.502 100.24 210.5C92.5018 210.489 91.5176 220.741 86.5919 224.695C85.0869 225.903 83.4045 226.887 81.9803 228.191C76.7212 233.002 79.09 241.908 83.919 246.128C87.2701 249.053 92.5367 250.718 96.6667 248.428C98.8227 247.235 100.459 245.25 101.625 243.073C103.28 239.986 104.347 236.424 105.524 233.132C106.777 229.63 107.826 225.984 107.981 222.244Z" fill="#13375B"/>
<path fill-rule="evenodd" clip-rule="evenodd" d="M108.978 236.897C106.401 229.382 103 229.5 103 229.5L105.748 245.5C107.339 245.083 109.411 244.152 111 243.72C110.473 241.344 109.612 238.747 108.978 236.897Z" fill="#F7CC7F"/>
<path fill-rule="evenodd" clip-rule="evenodd" d="M121.378 261.356L112.465 254.526C112.465 254.526 111.568 248.153 110.367 242.5C108.863 242.925 107.506 244.111 106 244.524L108.267 257.187L119.95 263.242L123.249 267.5L124 263.127L121.378 261.356Z" fill="#F48C7F"/>
<path fill-rule="evenodd" clip-rule="evenodd" d="M202.4 250.677C205.135 250.677 207.7 251.398 209.919 252.66C210.2 252.819 210.504 252.964 210.828 253.099C217.596 255.881 225 250.728 225 243.405V207.392H189.021C181.704 207.392 176.556 199.979 179.336 193.206C179.47 192.881 179.615 192.576 179.774 192.295C181.035 190.075 181.756 187.506 181.756 184.769C181.756 176.096 174.53 169.111 165.775 169.517C157.852 169.884 151.472 176.398 151.251 184.334C151.172 187.156 151.86 189.81 153.12 192.107C153.277 192.392 153.421 192.702 153.553 193.031C156.31 199.916 151.08 207.392 143.67 207.392H108V289.452C108 308.809 123.678 324.5 143.017 324.5H225V288.607C225 281.247 217.572 276.063 210.762 278.836C210.436 278.969 210.13 279.114 209.85 279.271C207.423 280.635 204.588 281.353 201.572 281.194C193.803 280.782 187.529 274.463 187.162 266.686C186.749 257.916 193.73 250.677 202.4 250.677Z" fill="#E24923"/>
<path fill-rule="evenodd" clip-rule="evenodd" d="M280.477 230.149C280.604 227.41 281.442 224.875 282.801 222.714C282.973 222.44 283.131 222.142 283.279 221.825C286.363 215.181 281.581 207.527 274.294 207.185L238.451 205.5L236.776 241.519C236.436 248.843 228.818 253.648 222.207 250.549C221.891 250.4 221.595 250.241 221.322 250.069C219.171 248.703 216.649 247.861 213.924 247.733C205.291 247.328 198.004 254.234 198 263.017C197.996 270.966 204.182 277.657 212.071 278.25C214.874 278.46 217.55 277.895 219.891 276.741C220.184 276.598 220.5 276.468 220.833 276.352C227.814 273.913 235.009 279.498 234.665 286.916L233.002 322.624L314.67 326.461C333.934 327.366 350.282 312.405 351.183 293.046L355 210.976L319.279 209.298C311.955 208.954 306.45 216.147 308.891 223.094C309.009 223.427 309.139 223.739 309.282 224.028C310.527 226.521 311.108 229.392 310.81 232.403C310.038 240.161 303.459 246.147 295.7 246.151C286.953 246.154 280.072 238.827 280.477 230.149Z" fill="#FC9D33"/>
<path fill-rule="evenodd" clip-rule="evenodd" d="M179.737 173.167C179.874 175.904 179.284 178.508 178.135 180.792C177.99 181.08 177.859 181.392 177.743 181.724C175.306 188.638 180.821 195.791 188.132 195.422L224.089 193.612L222.281 157.597C221.914 150.274 229.055 144.749 235.957 147.191C236.288 147.308 236.6 147.438 236.888 147.583C239.168 148.734 241.768 149.326 244.503 149.188C253.163 148.752 259.773 141.168 258.927 132.425C258.163 124.514 251.339 118.455 243.404 118.633C240.582 118.696 237.967 119.518 235.737 120.894C235.46 121.066 235.159 121.226 234.835 121.375C228.101 124.48 220.375 119.621 220.003 112.204L218.21 76.5L136.28 80.6263C116.953 81.5996 102.073 98.0813 103.045 117.439L107.165 199.5L143.002 197.695C150.349 197.326 155.152 189.629 152.041 182.952C151.893 182.633 151.733 182.335 151.561 182.061C150.078 179.7 149.218 176.899 149.226 173.873C149.247 166.076 155.24 159.477 162.987 158.719C171.721 157.864 179.302 164.488 179.737 173.167Z" fill="#2DD3BB"/>
<path fill-rule="evenodd" clip-rule="evenodd" d="M253.601 154.324C250.865 154.324 248.3 153.603 246.081 152.341C245.802 152.181 245.498 152.035 245.172 151.902C238.406 149.12 231 154.272 231 161.595V197.608H266.981C274.296 197.608 279.443 205.022 276.664 211.796C276.532 212.12 276.385 212.424 276.226 212.705C274.965 214.925 274.244 217.494 274.244 220.231C274.244 228.904 281.47 235.889 290.226 235.483C298.147 235.116 304.529 228.602 304.749 220.666C304.827 217.845 304.141 215.19 302.88 212.893C302.722 212.608 302.579 212.299 302.447 211.969C299.689 205.084 304.919 197.608 312.33 197.608H348V115.549C348 96.1921 332.322 80.5 312.983 80.5H231V116.394C231 123.753 238.429 128.937 245.238 126.164C245.564 126.031 245.87 125.887 246.152 125.729C248.577 124.365 251.414 123.647 254.429 123.807C262.197 124.218 268.471 130.537 268.837 138.315C269.252 147.084 262.27 154.324 253.601 154.324Z" fill="#5A35DA"/>
<path fill-rule="evenodd" clip-rule="evenodd" d="M84.2181 312.5C84.2181 312.5 83.6466 316.196 82.6631 317.387C82.3329 317.788 81.73 318.294 81.3343 319.018C80.7182 320.143 81.0588 321.82 81.5132 322.744C81.7463 323.218 81.4968 323.216 82.028 323.37C83.6009 323.821 85.2742 323.06 85.9441 321.655C86.3182 320.871 86.6463 319.825 86.7124 318.507C86.8804 315.151 88 313.445 88 313.445L84.2181 312.5Z" fill="#F7A491"/>
<path fill-rule="evenodd" clip-rule="evenodd" d="M100.63 314.5C100.63 314.5 100.971 318.919 100.694 320.356C100.546 321.126 99.7197 322.709 100.098 323.433C100.477 324.157 100.91 324.337 100.91 324.337L110.73 324.5C111.265 324.507 110.911 324.157 110.48 323.832C109.774 323.301 109.204 322.95 106.95 321.835C106.802 321.762 106.267 321.413 106.074 321.293C105.584 320.988 105.093 320.506 104.669 320.025C103.964 319.222 103.903 315.33 103.903 315.33L100.63 314.5Z" fill="#F7A491"/>
<path fill-rule="evenodd" clip-rule="evenodd" d="M108.305 258.562C108.305 258.562 109.531 265.44 108.726 269.949C107.921 274.459 104.055 316.262 104.055 316.262L99.7586 316.5C99.7586 316.5 98.8581 299.039 99.0193 296.611C99.1803 294.183 100.455 290.119 100.455 290.119L100.028 276.021L105.449 257.5L108.305 258.562Z" fill="#355389"/>
<path fill-rule="evenodd" clip-rule="evenodd" d="M94.9726 256.056C94.9726 256.056 91.605 261.075 90.8031 265.227C90.0013 269.38 91.3917 282.141 89.8493 287.584C89.0141 290.528 85.8496 295.078 85.3686 298.884C84.8874 302.691 83 312.661 83 312.661L87.275 313.5L97.2104 288.599L105.004 266.092L107 254.5L94.9726 256.056Z" fill="#466EB6"/>
<path fill-rule="evenodd" clip-rule="evenodd" d="M97.7411 227.515C97.7411 227.515 93.1604 227.233 91.3484 229.145C89.5361 231.058 95.3683 246.189 95.6977 248.623C96.027 251.057 94.018 257.529 94.018 257.529C94.018 257.529 104.778 259.626 107.854 257.656C107.854 257.656 108.183 240.15 107.854 238.411C107.524 236.672 104.778 229.601 104.119 228.906C103.46 228.21 97.7411 227.515 97.7411 227.515Z" fill="#F7CC7F"/>
<path fill-rule="evenodd" clip-rule="evenodd" d="M100.454 221.604C100.454 221.604 100.434 221.74 100.397 221.971C100.22 223.085 99.5394 226.78 99.0795 227.795C98.5238 229.024 100.982 232.937 103.348 232.46C104.053 232.317 102.753 228.864 102.815 228.497C102.935 227.797 103.097 226.841 103.263 225.862C103.357 225.309 103.451 224.748 103.54 224.221C103.794 222.724 104 221.5 104 221.5L100.454 221.604Z" fill="#F7A491"/>
<path fill-rule="evenodd" clip-rule="evenodd" d="M99.1449 222.041C99.1944 221.776 99.2222 221.62 99.2222 221.62L104 221.5C104 221.5 103.722 222.906 103.381 224.626C103.262 225.227 103.135 225.869 103.009 226.5C102.271 226.391 101.501 226.034 100.728 225.36C99.8853 224.626 99.3333 223.744 99 222.801C99.0588 222.499 99.1079 222.24 99.1449 222.041Z" fill="#F47458"/>
<path fill-rule="evenodd" clip-rule="evenodd" d="M102.24 212.511C102.24 212.511 100.417 212.296 99.2743 213.806C98.1316 215.316 96.8999 219.985 99.7386 222.524C102.577 225.063 105.382 222.188 105.798 219.141C106.214 216.094 106.376 212.4 102.24 212.511Z" fill="#F7A491"/>
<path fill-rule="evenodd" clip-rule="evenodd" d="M106.731 218.801C106.354 219.328 105.721 219.62 105.317 219.453C104.914 219.286 104.892 218.724 105.269 218.197C105.646 217.672 106.279 217.38 106.683 217.547C107.086 217.714 107.108 218.275 106.731 218.801Z" fill="#F7A491"/>
<path fill-rule="evenodd" clip-rule="evenodd" d="M102 211.552C102 211.552 99.6235 216.447 97.9233 216.674C96.2231 216.899 96 219.5 96 219.5C96 219.5 96.6077 213.507 98.2908 212.351C99.974 211.195 102 211.552 102 211.552Z" fill="#13375B"/>
<path fill-rule="evenodd" clip-rule="evenodd" d="M86 321.593C83.8192 322.047 82.3682 320.591 81.6133 319.5C81.0589 320.734 80.7885 322.578 81.1964 323.594C81.5552 324.489 82.6047 324.462 83.4309 324.498C84.3046 324.535 84.9805 323.981 85.4139 323.111C85.6162 322.706 85.8251 322.2 86 321.593Z" fill="#F47458"/>
<path fill-rule="evenodd" clip-rule="evenodd" d="M105.715 320.696C103.28 321.289 101.48 320.885 100.473 320.5C100.213 321.199 99.8687 322.077 100.051 322.581C100.275 323.201 100.593 323.341 100.874 323.348C103.099 323.405 109.023 323.479 110.719 323.5C110.956 323.503 111.087 323.241 110.935 323.068C110.514 322.591 105.897 320.801 105.715 320.696Z" fill="#F47458"/>
<path fill-rule="evenodd" clip-rule="evenodd" d="M98.961 218.805C99.1132 219.627 98.8066 220.38 98.276 220.487C97.7453 220.594 97.1916 220.017 97.0391 219.195C96.8867 218.374 97.1933 217.621 97.7239 217.513C98.2546 217.404 98.8083 217.983 98.961 218.805Z" fill="#F7A491"/>
<path fill-rule="evenodd" clip-rule="evenodd" d="M102 220.5L104 220.608C104 220.608 103.919 221.517 103.039 221.5C101.965 221.479 102 220.5 102 220.5Z" fill="white"/>
<path fill-rule="evenodd" clip-rule="evenodd" d="M294.559 40.5C294.828 40.5119 295.56 40.7752 296.632 42.9493C298 45.7257 300 54.1132 300 54.1132L294.03 56.5L293.263 54.7494L292 41.2718C292 41.2718 294.486 40.4967 294.559 40.5Z" fill="#DD513A"/>
<path fill-rule="evenodd" clip-rule="evenodd" d="M286.228 39.5C288.041 39.5023 292.519 40.0219 294.598 40.6751C294.598 40.6751 296.127 53.586 293.223 63.3964C292.575 65.5926 293.76 72.5 293.76 72.5L275 72.2566C275 72.2566 277.224 55.5574 276.386 52.8599C275.549 50.1627 275.529 40.7619 275.529 40.7619C275.529 40.7619 275.657 40.7422 279.743 40.0476C281.649 39.7235 284.297 39.4975 286.228 39.5Z" fill="#F47458"/>
<path fill-rule="evenodd" clip-rule="evenodd" d="M283.458 96.5C283.458 96.5 283.883 101.483 284.664 102.862C285.446 104.242 284.624 106.587 284.583 106.909C284.54 107.231 282.939 107.691 280.389 107.415C277.839 107.139 277.88 106.542 278.087 105.576C278.292 104.61 279.648 103.368 279.731 102.448C279.813 101.529 278.95 98.217 278.95 98.217L283.458 96.5Z" fill="#F7A491"/>
<path fill-rule="evenodd" clip-rule="evenodd" d="M290.604 68.7872C290.604 68.7872 303.28 68.0845 306.112 69.7959C308.943 71.5074 304.1 79.9068 304.1 79.9068C304.1 79.9068 295.281 79.501 278.004 80.4962C273.912 80.732 273.559 69.8469 274.324 68.9461C275.089 68.0454 290.604 68.7872 290.604 68.7872Z" fill="#E0973F"/>
<path fill-rule="evenodd" clip-rule="evenodd" d="M280.398 108.45C277.571 108.146 277.922 106.749 278.148 105.688C278.291 105.024 279.103 104.241 279.586 103.5C279.839 103.702 280.249 104.06 281.476 104.425C282.751 104.804 284.497 104.054 285.611 103.584C286.006 105.071 286.024 106.966 285.987 107.254C285.943 107.607 283.222 108.752 280.398 108.45Z" fill="#DD513A"/>
<path fill-rule="evenodd" clip-rule="evenodd" d="M281.895 77.769C282.417 81.6175 285 100.776 285 100.776L279.007 101.5C279.007 101.5 271.636 76.4941 272.014 72.6694C272.391 68.8445 275.15 68.5229 275.15 68.5229C275.15 68.5229 280.514 67.5817 281.895 77.769Z" fill="#F7CC7F"/>
<path fill-rule="evenodd" clip-rule="evenodd" d="M274.959 41.5199C276.731 40.8624 277.6 56.6539 277.839 63.1537C280.981 63.4523 286.457 63.156 287.819 63.0549C288.462 63.0072 289.94 62.4723 290.577 62.3897C291.231 62.3052 291.824 62.2612 292.145 62.3163C292.262 62.3367 295.537 63.6596 295.816 63.9497C296.165 64.3095 297.103 65.217 296.944 65.6096C296.787 66.002 295.139 64.5162 295.139 64.5162L294.334 64.0698C295.336 65.0372 297.247 66.3115 296.973 66.7755C296.703 67.228 294.98 65.9348 293.75 65.0536C294.805 65.9945 296.114 67.6782 295.812 67.9406C295.54 68.1765 294.051 66.2273 292.459 65.6659C291.87 65.4579 291.28 66.034 290.816 66.1036C290.475 66.1548 289.949 66.2635 289.613 66.1698L287.89 65.6866C287.302 65.7391 287.288 66.0825 286.695 66.2071C286.006 66.3519 284.876 66.5043 284 66.716C278.949 67.9348 277.266 68.5009 275.72 68.5C271.038 68.4971 270.766 43.0736 274.959 41.5199Z" fill="#F7A491"/>
<path fill-rule="evenodd" clip-rule="evenodd" d="M271.14 57.2018C270.777 50.3887 270.831 41.991 274.958 40.5583C276.584 39.9928 279.455 43.3921 278.939 57.3402C276.736 57.5085 273.502 57.6442 271.14 57.2018Z" fill="#DD513A"/>
<path fill-rule="evenodd" clip-rule="evenodd" d="M300.733 101.5C300.733 101.5 300.205 103.253 301.149 104.412C302.091 105.572 306.009 106.709 306.525 107.337C307.04 107.965 306.999 108.5 306.999 108.5L296 108.186L296.121 104.737L296.627 102.259L300.733 101.5Z" fill="#F7A491"/>
<path fill-rule="evenodd" clip-rule="evenodd" d="M301.296 104.764C301.296 104.764 298.535 105.955 297.202 105.25C295.868 104.544 295.909 104.349 295.523 104.612C295.138 104.875 295 108.121 295 108.121L307.077 108.5C307.919 108.479 308.343 107.819 307.661 107.253C307.192 106.865 306.651 106.605 306.343 106.417C305.398 105.839 301.296 104.764 301.296 104.764Z" fill="#DD513A"/>
<path fill-rule="evenodd" clip-rule="evenodd" d="M300.166 71.6138C301.03 69.8426 302.993 67.5366 306.448 68.9255C309.743 70.2502 310.627 73.5057 309.588 76.8393C308.548 80.1731 301.703 99.7703 301.465 102.465L296 102.5C296 102.5 296.994 86.9826 297.238 83.2318C297.472 79.6229 298.671 74.6792 300.166 71.6138Z" fill="#F7CC7F"/>
<path fill-rule="evenodd" clip-rule="evenodd" d="M308.865 53.5H291.474C291.015 53.5 290.601 53.783 290.425 54.2165L285.072 67.5123H275.484C275.216 67.5123 275 67.7335 275 68.0061C275 68.279 275.216 68.5 275.484 68.5H302.771C303.52 68.5 304.201 68.0518 304.507 67.355L309.899 55.1272C310.236 54.3634 309.687 53.5 308.865 53.5Z" fill="black"/>
<path fill-rule="evenodd" clip-rule="evenodd" d="M299.974 61.6724C299.852 62.2164 299.315 62.5801 298.777 62.4848C298.24 62.3897 297.903 61.8714 298.025 61.3276C298.149 60.7837 298.686 60.4199 299.224 60.5152C299.761 60.6103 300.099 61.1286 299.974 61.6724Z" fill="white"/>
<path fill-rule="evenodd" clip-rule="evenodd" d="M290.098 23.8069C289.55 23.6338 289.012 23.4385 288.493 23.2028C287.905 22.9364 287.144 22.6245 286.663 22.5548C285.65 22.4078 283.91 22.5058 282.949 23.4852C281.753 24.7055 279.627 23.7056 280.056 30.0967C280.541 37.3306 284.82 36.5368 284.923 36.4143C285.027 36.2918 288.739 31.7864 288.739 31.7864C288.739 31.7864 290.037 34.4554 290.037 34.3574C290.037 34.2629 296.664 25.8862 290.098 23.8069Z" fill="#0E2E35"/>
<path fill-rule="evenodd" clip-rule="evenodd" d="M287.333 36.5109L287.697 39.0575C287.697 39.0575 288.514 42.7265 287.464 43.4337C286.414 44.141 283 38.9529 283 38.9529L283.361 32.5L287.333 36.5109Z" fill="#F7A491"/>
<path fill-rule="evenodd" clip-rule="evenodd" d="M282 34.8726C282.986 37.3698 285.334 38.9047 287 39.5L286.648 37.0504L282.133 32.5L282 34.8726Z" fill="#F47458"/>
<path fill-rule="evenodd" clip-rule="evenodd" d="M286.192 24.5466C288.225 24.1831 290.051 25.9948 289.999 28.25C289.977 29.2303 289.906 30.4542 289.721 31.7722C289.279 34.9422 287.325 37.7337 286.035 37.4845C284.744 37.2352 281.495 34.5006 282.067 29.9895C282.42 27.2043 284.059 24.9284 286.192 24.5466Z" fill="#F7A491"/>
<path fill-rule="evenodd" clip-rule="evenodd" d="M282.978 30.6406C282.864 31.1873 282.332 31.5676 281.791 31.4899C281.252 31.4122 280.906 30.906 281.022 30.3593C281.136 29.8127 281.667 29.4324 282.207 29.5101C282.748 29.5877 283.092 30.0939 282.978 30.6406Z" fill="#F7A491"/>
<path fill-rule="evenodd" clip-rule="evenodd" d="M282.511 29.4287C282.511 29.4287 284.129 29.8042 284.728 28.832C285.329 27.86 287.476 25.7621 290.202 26.6319C292.931 27.5017 287.802 24.5169 287.585 24.5169C287.365 24.5169 284.747 24.5 284.747 24.5C284.747 24.5 282.729 26.0521 282.656 26.2225C282.582 26.3931 282 28.2521 282 28.2521L282.511 29.4287Z" fill="#0E2E35"/>
<path fill-rule="evenodd" clip-rule="evenodd" d="M286.011 33.5L289 34.2564C289 34.2564 288.714 35.7467 287.393 35.4644C285.782 35.1206 286.011 33.5 286.011 33.5Z" fill="white"/>
<path fill-rule="evenodd" clip-rule="evenodd" d="M234 246.335C234.111 246.749 234.175 246.885 234.317 247.162C235.232 248.95 237.356 251.5 237.356 251.5L239 247.53C239 247.53 238.731 246.282 238.267 244.5C236.681 244.945 235.168 245.202 234 246.335Z" fill="#F8A492"/>
<path fill-rule="evenodd" clip-rule="evenodd" d="M244 243.585C244 243.585 234.323 247.575 234.01 247.499C233.809 247.449 230.042 241.411 230 235.733C229.982 233.11 232.827 229.955 236 230.58C237.599 230.894 237.573 231.32 239.937 234.609C242.302 237.897 244 243.585 244 243.585Z" fill="#13375B"/>
<path fill-rule="evenodd" clip-rule="evenodd" d="M251.614 317.5L251.396 321.067C251.316 321.52 251 322.637 251 323.049C251 324.592 258.419 321.737 256.757 321.052C256.606 320.991 255.818 320.523 255.768 319.998C255.692 319.188 255.499 317.549 255.499 317.549L251.614 317.5Z" fill="#FFCEC0"/>
<path fill-rule="evenodd" clip-rule="evenodd" d="M257.418 320.576C257.418 320.576 255.554 321.142 254.6 321.284C253.647 321.427 252.389 320.232 251.714 320.556C250.971 320.91 251 324.105 251 324.105C251 324.105 260.989 325.014 263.798 324.074C264.912 323.7 261.225 321.897 257.418 320.576Z" fill="#DD513A"/>
<path fill-rule="evenodd" clip-rule="evenodd" d="M235.614 317.5L235.395 321.067C235.316 321.52 235 322.637 235 323.049C235 324.592 242.421 321.737 240.757 321.052C240.608 320.991 239.585 320.173 239.535 319.647C239.458 318.839 239.499 317.549 239.499 317.549L235.614 317.5Z" fill="#FFCEC0"/>
<path fill-rule="evenodd" clip-rule="evenodd" d="M241.45 320.575C241.45 320.575 239.594 321.131 238.644 321.271C237.694 321.412 236.441 320.237 235.769 320.555C235.029 320.903 235 324.045 235 324.045C235 324.045 244.993 325.088 247.804 324.015C248.895 323.597 245.242 321.874 241.45 320.575Z" fill="#DD513A"/>
<path fill-rule="evenodd" clip-rule="evenodd" d="M238 249.294L244.789 239.653C244.817 239.569 244.88 239.396 244.974 239.132C245.316 238.175 246.027 236.185 246.647 234.205L246.653 234.184C246.849 233.492 247.26 232.285 247.659 231.117C248.103 229.818 248.654 228.207 248.673 227.933C248.657 227.886 248.625 227.801 248.582 227.689C248.333 227.035 247.996 225.475 247.877 224.797C247.802 224.366 247.725 223.315 248.233 223.315C249.028 223.315 248.65 224.364 249.017 225.018C249.151 224.581 249.424 223.712 249.568 222.834L249.701 220.784C249.726 220.631 249.564 219.5 250.124 219.5H250.151C250.651 219.538 250.641 220.739 250.849 222.773C250.915 222.538 250.981 222.256 251.031 221.998C251.025 221.859 251.125 221.247 251.2 220.925C251.1 220.358 251.159 219.464 251.754 219.549C252.052 219.59 252.027 220.838 252.027 220.838C252.025 221.008 252.007 222.327 252.016 222.588C252.077 222.146 252.315 220.259 252.782 220.259C253.169 220.259 253.201 220.766 253.192 221.169C253.189 221.405 252.944 223.45 252.932 223.688C253.114 223.378 253.329 221.577 253.511 221.577C254.265 221.577 253.992 224.138 253.714 224.805C253.689 224.873 253.661 225.007 253.629 225.162C253.534 225.619 253.377 226.383 252.982 227.068C252.508 227.889 251.854 229.197 251.754 229.397C251.681 229.806 251.453 231.274 251.168 233.122C251.045 233.911 250.911 234.778 250.772 235.676L250.765 235.674C250.739 235.869 250.598 236.486 250.06 238.804C249.326 241.975 249.249 242.112 249.217 242.17C248.898 242.743 241.578 252.817 241.266 253.247L241.083 253.5L238 249.294Z" fill="#FFCEC0"/>
<path fill-rule="evenodd" clip-rule="evenodd" d="M251 227.5C251 227.5 250.281 225.576 249 225.572C249 225.572 249.715 225.302 250.329 225.81C250.944 226.318 251 227.5 251 227.5Z" fill="#CA998B"/>
<path fill-rule="evenodd" clip-rule="evenodd" d="M236.853 224.823L236 230.322C236 230.322 239.246 232.984 241.137 232.422C242.724 231.952 241.637 229.833 241.637 229.833C241.637 229.833 240.791 226.896 241.05 225.356C241.309 223.817 236.853 224.823 236.853 224.823Z" fill="#FFCEC0"/>
<path fill-rule="evenodd" clip-rule="evenodd" d="M236.872 225.456C237.786 225.844 239.593 226.371 241 226.5C240.865 225.739 240.789 224.936 240.902 224.344C241.037 223.644 240.042 223.478 238.933 223.502C237.479 223.612 236.185 223.817 236.185 223.817L236 224.859C236.277 225.12 236.568 225.328 236.872 225.456Z" fill="#CA998B"/>
<path fill-rule="evenodd" clip-rule="evenodd" d="M232.009 217.54C231.871 217.54 233.336 223.857 235.603 224.944C237.869 226.031 241.249 225.465 241.883 223.763C242.585 221.881 240.027 215.436 236.838 214.617C233.65 213.798 232.009 217.54 232.009 217.54Z" fill="#FFCEC0"/>
<path fill-rule="evenodd" clip-rule="evenodd" d="M235.374 211.792C233.572 212.828 232.744 214.366 232.465 214.994C231.619 215.395 230.595 216.259 230.103 218.593C229.499 221.459 231.648 223.669 233.926 224.334C236.203 224.998 236.555 226.5 236.555 226.5L236.815 224.884C236.815 224.884 236.307 223.477 235.545 222.772C234.784 222.068 235.906 221.042 236.005 220.205C236.082 219.56 235.604 218.308 235.708 217.25C235.708 217.25 236.974 215.338 238.222 214.866C240.349 214.061 237.687 210.463 235.374 211.792Z" fill="#13375B"/>
<path fill-rule="evenodd" clip-rule="evenodd" d="M236.833 221.671C237.139 222.479 237.013 223.282 236.553 223.464C236.094 223.643 235.473 223.137 235.167 222.329C234.862 221.522 234.986 220.718 235.447 220.537C235.907 220.355 236.527 220.864 236.833 221.671Z" fill="#FFCEC0"/>
<path fill-rule="evenodd" clip-rule="evenodd" d="M245 249.5L258 247.324C258 247.324 256.521 243.5 255.992 243.5C255.463 243.5 246.162 247.671 246.162 247.671L245.423 249.195L245 249.5Z" fill="#FFCEC0"/>
<path fill-rule="evenodd" clip-rule="evenodd" d="M238.17 258.1C238.17 258.1 236.901 264.434 237.417 269.238C237.934 274.039 237.976 291.099 237.976 291.099L236 318.395L240.685 318.5C240.685 318.5 246.24 291.217 246.137 291.917C246.034 292.618 248 272.708 248 272.708L241.377 257.5L238.17 258.1Z" fill="#184655"/>
<path fill-rule="evenodd" clip-rule="evenodd" d="M239.333 257.619C239.333 257.619 238.454 263.37 239.552 265.892C240.652 268.415 248.976 293.163 249.087 295.179C249.197 297.198 251.964 319.5 251.964 319.5L257.748 319.341L259 294.545L256.38 263.38L253.836 255.5L239.333 257.619Z" fill="#13375B"/>
<path fill-rule="evenodd" clip-rule="evenodd" d="M250 243.809C250 243.809 254.981 248.157 257.23 247.415C259.478 246.672 260.408 244.135 254.922 240.424C250.013 237.101 250 243.809 250 243.809Z" fill="#FFCEC0"/>
<path fill-rule="evenodd" clip-rule="evenodd" d="M254.256 249.361C253.502 245.349 248.041 232.861 247.605 230.56C247.393 229.442 244.446 229.417 241.642 229.563C238.679 229.717 235.734 230.083 235.734 230.083C235.734 230.083 233.11 230.506 231.957 231.564C230.802 232.623 230.495 235.551 232.154 241.11C233.464 245.499 235.088 247.908 235.893 251.104C236.055 252.176 236.194 253.233 236.38 254.469C236.674 259.249 236.376 265.562 236.376 265.562C236.376 265.562 250.658 268.463 256 264.062C256 264.062 255.027 253.473 254.256 249.361Z" fill="#355389"/>
<path fill-rule="evenodd" clip-rule="evenodd" d="M258 240.856C258 240.856 252.389 245.5 252.062 245.5C251.852 245.5 244.053 239.75 242.254 235.025C241.26 232.413 243.346 229.491 245.729 229.5C247.383 229.507 248.117 229.934 251.391 232.702C254.667 235.472 258 240.856 258 240.856Z" fill="#466EB6"/>
<path fill-rule="evenodd" clip-rule="evenodd" d="M160.936 37.4867C161.84 35.3008 162.76 33.1104 165.107 32.0033C167.006 31.1075 168.99 31.4448 170.678 32.7191C175.459 36.3301 171.292 40.3083 176.735 47.1555C178.426 49.2831 180.473 51.0011 181.487 53.4943C182.904 56.9842 181.215 58.6601 178.507 60.3315C165.553 68.3287 158.763 51.9089 159.006 48.1526C159.188 45.3583 160.354 38.8939 160.936 37.4867Z" fill="#13375B"/>
<path fill-rule="evenodd" clip-rule="evenodd" d="M147.207 80.874C147.764 80.7857 149.117 79.8155 149.595 79.7272C149.965 79.6587 150.766 79.5374 151.107 79.4862C151.525 77.9237 153.647 69.4053 153.885 66.9082C154.142 64.2031 156.053 52.5 156.053 52.5L161 53.4004C161 53.4004 158.945 62.4033 158.377 66.769C157.89 70.5183 153.781 78.9489 153.258 79.8386C153.258 79.8601 153.257 79.8808 153.256 79.9035C153.176 81.2267 152.54 80.7857 152.54 80.7857L151.505 81.0504C151.505 81.0504 147.844 81.4031 147.605 81.4914C147.366 81.5797 146.65 80.9621 147.207 80.874Z" fill="#C86F5C"/>
<path fill-rule="evenodd" clip-rule="evenodd" d="M160.449 45.5C156.975 46.6192 155 55.5926 155 55.5926C155 55.5926 160.451 57.0383 161.847 56.2801C161.847 56.2801 163.432 49.6045 164 49.8379L160.449 45.5Z" fill="#6A97CE"/>
<path fill-rule="evenodd" clip-rule="evenodd" d="M134 95.5C132.973 98.3967 132.44 101.187 132.392 101.525C132.369 101.687 132.583 102.474 132.563 102.643C130.502 105.65 127.539 106.308 125 106.5C126.294 105.149 128.195 103.868 128.286 103.44C128.431 102.759 129.213 99.725 129.598 95.5207C131.177 96.3024 132.249 95.6829 134 95.5Z" fill="#C86F5C"/>
<path fill-rule="evenodd" clip-rule="evenodd" d="M163.343 65.5L168 78.5951C168 78.5951 160.516 80.0016 157.719 80.5138C154.921 81.0259 139.289 81.7078 138.893 81.9848C138.599 82.1905 135.37 92.6178 133.928 98.3675C132.291 98.7271 129.49 98.2952 128 97.7826C128.805 89.5559 131.713 76.5223 132.644 75.1034C134.161 72.7925 163.343 65.5 163.343 65.5Z" fill="#256653"/>
<path fill-rule="evenodd" clip-rule="evenodd" d="M146 101.5C145.492 104.404 145.458 107.114 145.47 107.439C145.475 107.595 145.828 108.29 145.838 108.451C144.322 111.656 141.492 112.836 139 113.5C140.048 111.99 141.711 110.43 141.726 110.012C141.749 109.348 141.989 106.363 141.625 102.359C143.335 102.788 144.291 102.005 146 101.5Z" fill="#C86F5C"/>
<path fill-rule="evenodd" clip-rule="evenodd" d="M168.986 65.5L170.79 68.5457C173.531 73.1826 171.429 79.1482 166.368 81.0917C166.341 81.1022 166.314 81.1126 166.287 81.1226C163.642 82.1377 148.455 85.6917 148.119 86.034C147.87 86.2882 146.658 97.0131 146.321 102.864C144.785 103.516 141.96 103.615 140.404 103.393C139.653 95.2536 140.062 82.0568 140.709 80.5064C141.762 77.9813 168.986 65.5 168.986 65.5Z" fill="#327F6B"/>
<path fill-rule="evenodd" clip-rule="evenodd" d="M145.34 107.555C145.76 107.103 147.301 109.589 147.685 110.119C148.118 110.716 147.995 111.166 147.943 111.259C147.807 111.505 139.683 116.163 137.702 116.495C137.515 116.526 137.19 116.411 137.109 116.34C136.334 115.672 139.898 110.74 141.499 110.092C142.533 109.673 143.453 109.587 145.34 107.555Z" fill="#13375B"/>
<path fill-rule="evenodd" clip-rule="evenodd" d="M132.159 100.537C132.624 100.141 133.588 103.077 133.845 103.714C134.135 104.431 133.941 104.883 133.877 104.972C133.708 105.205 125.443 108.539 123.572 108.5C123.395 108.496 123.119 108.31 123.057 108.219C122.468 107.36 126.611 102.838 128.191 102.467C129.212 102.227 130.069 102.317 132.159 100.537Z" fill="#13375B"/>
<path fill-rule="evenodd" clip-rule="evenodd" d="M163.536 45.6955H163.536C163.45 45.696 163.326 45.6652 163.199 45.6248C162.578 45.5119 161.22 45.3466 160.163 45.7997C158.878 46.3505 156.887 51.4977 157.005 56.7813C157.053 57.589 157.101 58.3122 157.142 58.8164C157.466 62.8072 158.593 70.2963 158.654 70.336C160.187 71.3385 169.436 67.4518 170.072 66.5982C170.708 65.7443 171.083 55.3708 171.392 54.8537L172 45.8319C170.927 45.5066 165.181 45.6836 163.536 45.6955Z" fill="#9BC1F9"/>
<path fill-rule="evenodd" clip-rule="evenodd" d="M168 42.0999C168 42.0999 167.376 45.1673 167.501 46.3773C167.626 47.5874 167.025 51.4871 164.332 51.5C161.639 51.5127 163.821 46.5419 164.074 45.3562C164.328 44.1704 164.388 40.5 164.388 40.5L168 42.0999Z" fill="#C86F5C"/>
<path fill-rule="evenodd" clip-rule="evenodd" d="M164 42.2771C164.046 41.308 164.061 40.5 164.061 40.5L168 42.0439C168 42.0439 167.861 42.6492 167.721 43.4203C165.997 43.7119 164.747 43.1749 164 42.2771Z" fill="#BA5D4F"/>
<path fill-rule="evenodd" clip-rule="evenodd" d="M168.042 32.9221C168.042 32.9221 169.365 33.6867 169.848 35.3441C170.333 37.0015 169.782 41.2782 166.365 42.31C162.948 43.342 161.467 39.9556 162.171 37.308C162.875 34.6604 164.406 31.3076 168.042 32.9221Z" fill="#C86F5C"/>
<path fill-rule="evenodd" clip-rule="evenodd" d="M162.014 36.557C162.106 37.1085 162.621 37.5298 163.166 37.4983C163.711 37.4669 164.078 36.9943 163.986 36.443C163.894 35.8916 163.379 35.4701 162.834 35.5017C162.29 35.5331 161.922 36.0056 162.014 36.557Z" fill="#C86F5C"/>
<path fill-rule="evenodd" clip-rule="evenodd" d="M168 33.5C168 33.5 168.685 37.9333 170.326 38.7334C171.964 39.5334 171.278 41.5 171.278 41.5C171.278 41.5 172.766 36.9334 171.47 35.4667C170.173 34 168 33.5 168 33.5Z" fill="#13375B"/>
<path fill-rule="evenodd" clip-rule="evenodd" d="M169.291 39.0861C168.902 39.5886 168.903 40.1813 169.294 40.4101C169.686 40.6386 170.319 40.4165 170.708 39.9139C171.098 39.4112 171.098 38.8185 170.705 38.5899C170.314 38.3614 169.68 38.5835 169.291 39.0861Z" fill="#C86F5C"/>
<path fill-rule="evenodd" clip-rule="evenodd" d="M165.016 39.5L167 40.4155C167 40.4155 166.762 41.7972 165.882 41.4414C164.81 41.0077 165.016 39.5 165.016 39.5Z" fill="white"/>
<path fill-rule="evenodd" clip-rule="evenodd" d="M176 79.0115C176.122 79.0059 187 78.5 187 78.5C187 78.5 182.486 81.5 182.394 81.5C182.301 81.5 178.799 80.2214 178.645 80.2214C178.492 80.2214 176 79.0115 176 79.0115Z" fill="#50BFA5"/>
<path fill-rule="evenodd" clip-rule="evenodd" d="M390.385 317.5L390.604 321.068C390.684 321.52 391 322.638 391 323.048C391 324.592 383.58 321.737 385.243 321.054C385.392 320.992 386.181 320.523 386.231 319.998C386.308 319.187 386.5 317.55 386.5 317.55L390.385 317.5Z" fill="#F2BE93"/>
<path fill-rule="evenodd" clip-rule="evenodd" d="M385.571 320.576C385.571 320.576 387.147 321.142 387.953 321.285C388.761 321.426 389.825 320.233 390.396 320.556C391.025 320.91 391 324.105 391 324.105C391 324.105 382.548 325.014 380.171 324.074C379.229 323.701 382.348 321.896 385.571 320.576Z" fill="#F7CC7F"/>
<path fill-rule="evenodd" clip-rule="evenodd" d="M401.385 317.5L401.606 321.068C401.684 321.52 402 322.638 402 323.048C402 324.592 394.58 321.737 396.243 321.054C396.394 320.992 397.416 320.174 397.465 319.648C397.542 318.839 397.502 317.55 397.502 317.55L401.385 317.5Z" fill="#F2BE93"/>
<path fill-rule="evenodd" clip-rule="evenodd" d="M397.055 320.56C397.055 320.56 398.765 321.01 399.641 321.122C400.516 321.235 401.672 320.289 402.29 320.544C402.972 320.826 403 323.358 403 323.358C403 323.358 393.894 323.693 391.196 323.334C390.136 323.192 393.559 321.608 397.055 320.56Z" fill="#F7CC7F"/>
<path fill-rule="evenodd" clip-rule="evenodd" d="M399.505 259.09C399.505 259.09 400.732 265.32 400.231 270.045C399.731 274.768 399.693 291.549 399.693 291.549L402 318.387L397.072 318.5C397.072 318.5 391.702 291.665 391.8 292.354C391.901 293.043 390 273.459 390 273.459L396.402 258.5L399.505 259.09Z" fill="#355389"/>
<path fill-rule="evenodd" clip-rule="evenodd" d="M398.083 254.5C398.083 254.5 403.592 260.307 401.543 266.648C400.719 269.196 393.043 293.534 392.943 295.524C392.844 297.513 390.346 319.5 390.346 319.5L385.129 319.343L384 294.896L385.491 261.958L388.659 256.402L398.083 254.5Z" fill="#466EB6"/>
<path fill-rule="evenodd" clip-rule="evenodd" d="M364.206 235.987C365.998 234.03 369.893 231.245 369.893 231.245C369.893 231.245 372.216 229.303 373.161 228.984C374.554 228.513 376.94 227.258 380.392 232.382C382.86 236.049 398.443 255.033 401 255.671L384.296 263.5C383.839 259.761 375.584 252.696 374.396 251.378C371.74 248.434 362.511 237.841 364.206 235.987Z" fill="#F47458"/>
<path fill-rule="evenodd" clip-rule="evenodd" d="M365.673 227.5L370.997 230.588C370.997 230.588 371.147 235.091 369.406 236.261C367.945 237.243 366.835 234.886 366.835 234.886C366.835 234.886 364.855 232.168 363.35 231.322C361.847 230.475 365.673 227.5 365.673 227.5Z" fill="#F2BE93"/>
<path fill-rule="evenodd" clip-rule="evenodd" d="M366.84 229.336C366.624 230.206 366.126 231.464 365.351 232.5C364.721 231.917 364.009 231.346 363.377 231.04C362.629 230.678 363.106 229.896 363.833 229.159C364.863 228.246 365.879 227.5 365.879 227.5L366.98 228.049C367.051 228.406 366.913 229.046 366.84 229.336Z" fill="#D19F76"/>
<path fill-rule="evenodd" clip-rule="evenodd" d="M362.953 220.723C363.044 220.617 367.503 225.857 366.953 228.313C366.403 230.772 363.708 233.013 361.835 232.397C359.763 231.714 355.911 225.546 357.292 222.551C358.674 219.558 362.953 220.723 362.953 220.723Z" fill="#F2BE93"/>
<path fill-rule="evenodd" clip-rule="evenodd" d="M358.193 218.364C360.004 217.385 362.957 217.105 365.163 218.227C367.877 219.604 368.495 223.074 367.645 225.189C366.795 227.305 367.769 228.5 367.769 228.5L366.328 227.685C366.328 227.685 365.487 226.411 365.378 225.397C365.268 224.382 363.742 224.562 362.999 224.101C362.424 223.746 361.693 222.595 360.765 221.997C360.765 221.997 358.429 221.72 357.28 222.345C355.321 223.412 355.6 219.763 358.193 218.364Z" fill="#13375B"/>
<path fill-rule="evenodd" clip-rule="evenodd" d="M364 224.986C363.984 225.814 364.42 226.491 364.971 226.5C365.525 226.507 365.983 225.843 366 225.014C366.016 224.186 365.58 223.508 365.029 223.5C364.478 223.493 364.017 224.157 364 224.986Z" fill="#F2BE93"/>
<path fill-rule="evenodd" clip-rule="evenodd" d="M360 230.105L361.851 228.5C361.851 228.5 362.341 229.369 361.545 230.102C360.573 230.996 360 230.105 360 230.105Z" fill="white"/>
<path fill-rule="evenodd" clip-rule="evenodd" d="M354.418 262.86C354.977 262.029 355.221 260.831 355.996 259.916C356.255 259.608 356.669 259.263 357.139 258.918C360.862 256.706 370.558 251.003 370.935 250.561C371.383 250.036 378 238.868 378 238.868L372.057 237.5L366.248 247.919C365.763 248.309 356.543 255.232 356.543 255.232C356.543 255.232 354.71 256.686 353.707 257.367C353.201 257.667 352.711 257.861 352.281 258.014C351.739 258.205 350.71 258.728 350.501 258.913C350.258 259.13 349.774 259.592 349.485 259.874C349.197 260.158 348.848 260.476 348.714 260.645C348.631 260.748 348.376 260.888 348.19 260.983C347.911 261.124 347.948 261.542 348.247 261.629C348.528 261.709 348.91 261.53 349.146 261.418C349.814 261.098 350.63 260.239 350.672 260.343C350.715 260.45 349.887 262.292 349.805 262.509C349.726 262.727 348.774 264.874 348.724 265.353C348.677 265.832 348.96 265.942 349.172 265.768C349.354 265.617 350.883 262.748 350.883 262.748C350.883 262.748 351.079 262.383 351.155 262.592C351.232 262.802 349.848 265.408 349.712 265.836C349.577 266.264 349.685 266.614 350.074 266.465C350.549 266.282 351.856 263.408 351.856 263.408C351.856 263.408 352.026 263.05 352.143 263.174C352.258 263.298 351.046 265.496 351.032 265.75C351.017 266.003 351.244 266.253 351.571 266.041C351.955 265.791 353.102 263.216 353.102 263.216C353.102 263.216 353.243 263.045 353.288 263.165C353.332 263.284 352.429 265.234 352.497 265.518C352.553 265.757 352.766 265.708 352.766 265.708C353.238 265.708 353.859 263.69 354.418 262.86Z" fill="#F2BE93"/>
<path fill-rule="evenodd" clip-rule="evenodd" d="M375.813 245.5C375.813 245.5 373.832 244.883 372.563 244.312C371.712 243.93 368 242.121 368 242.121C368 242.121 369.601 235.51 370.682 233.132C374.652 224.408 379.163 230.425 379.775 231.828C381.145 234.964 375.813 245.5 375.813 245.5Z" fill="#355389"/>
<path fill-rule="evenodd" clip-rule="evenodd" d="M240 222.106L241.851 220.5C241.851 220.5 242.341 221.368 241.545 222.101C240.574 222.996 240 222.106 240 222.106Z" fill="white"/>
<path fill-rule="evenodd" clip-rule="evenodd" d="M458.023 324.5H25.978C25.4378 324.5 25 324.948 25 325.501C25 326.053 25.4378 326.5 25.978 326.5H458.023C458.562 326.5 459 326.053 459 325.501C459 324.948 458.562 324.5 458.023 324.5Z" fill="#184655"/>
<path fill-rule="evenodd" clip-rule="evenodd" d="M187.987 78.9014C187.943 78.7876 187.846 78.7853 187.747 78.7822C186.784 78.752 185.821 78.7076 184.866 78.5609C184.706 78.5365 184.549 78.4997 184.402 78.4396C184.136 78.3306 183.875 78.3333 183.605 78.4096C183.46 78.4508 183.312 78.4586 183.162 78.4579C182.679 78.4557 181.296 77.973 180.586 77.8457C180.424 77.8166 180.295 77.6907 180.255 77.5268C179.556 74.6913 178.058 68.3293 177.864 66.2372C177.616 63.5619 175.816 51.5 175.816 51.5L171 52.8785C171 52.8785 172.981 61.782 173.53 66.0992C173.953 69.4329 177.199 76.5072 178.217 78.5414C178.713 80.0553 179.83 80.0975 180.087 80.1299C180.235 80.1486 180.373 80.2232 180.47 80.3396C180.645 80.5498 180.846 80.7329 181.077 80.8821C181.248 80.9927 181.378 81.1369 181.491 81.3054C181.696 81.6122 181.879 81.9325 182.061 82.2539C182.181 82.467 182.306 82.5344 182.485 82.4842C182.675 82.4304 182.767 82.2854 182.763 82.0464C182.758 81.6935 182.647 81.3739 182.476 81.0728C182.313 80.7906 182.326 80.6266 182.513 80.3669C182.622 80.2177 182.733 80.0731 182.874 79.9545C183.019 79.8337 183.173 79.7421 183.368 79.7703C183.714 79.859 184.063 79.9309 184.418 79.9713L184.709 80.0321L184.868 80.0669C184.893 80.0734 185.406 80.131 185.581 80.1312C185.722 80.1314 185.949 80.141 186.143 80.1507C186.32 80.1594 186.692 80.0653 186.704 80.0649C186.875 80.0609 187.027 79.9976 187.154 79.8799C187.205 79.8317 187.257 79.7776 187.23 79.6959C187.205 79.6206 187.149 79.5887 187.073 79.5749C186.958 79.5536 186.36 79.479 186.366 79.4529C186.544 79.4529 187.1 79.4395 187.278 79.4346C187.518 79.4281 187.724 79.3401 187.89 79.1585C187.955 79.0866 188.031 79.0156 187.987 78.9014Z" fill="#C86F5C"/>
<path fill-rule="evenodd" clip-rule="evenodd" d="M172.523 45.5127C174.976 45.0859 177 55.5863 177 55.5863C177 55.5863 171.549 57.042 170.153 56.2786C170.153 56.2786 168.568 49.5569 168 49.7919L172.523 45.5127Z" fill="#9BC1F9"/>
<path fill-rule="evenodd" clip-rule="evenodd" d="M114.225 239.146C114.383 238.69 112.19 238.323 112.073 237.864C111.957 237.403 114.842 237.367 114.945 236.963C115.135 236.219 111.783 236.807 111.849 236.458C111.915 236.111 115.343 235.333 114.972 234.734C114.601 234.136 111.501 235.915 111.407 235.511C111.314 235.105 114.438 234.118 114.382 233.228C114.352 232.753 109.254 235.598 108.663 235.34C108.072 235.082 109.299 232.849 108.828 232.516C108.357 232.185 107.006 237.056 106.681 237.218C106.357 237.38 99.4694 241.346 97.0186 241.976C96.7211 241.149 96.0778 240.032 95.8152 239.249C94.4401 240.235 93.4192 240.732 92 241.631C93.0282 244.23 94.4915 247.077 95.2079 247.405C97.3888 248.398 105.824 241.339 107.508 240.132C109.193 238.923 110.157 239.315 111.297 238.932C112.436 238.551 114.068 239.6 114.225 239.146Z" fill="#F7A491"/>
<path fill-rule="evenodd" clip-rule="evenodd" d="M91.5736 243.5C91.5736 243.5 89.7152 235.034 90.0376 232.577C90.3599 230.121 93.1898 227.832 95.1505 228.68C97.1113 229.531 98 241.35 98 241.35L91.5736 243.5Z" fill="#F7CC7F"/>
</svg>
